<?xml version="1.0" encoding="utf-8" ?>
<svg baseProfile="full" height="1024" version="1.1" width="256" xmlns="http://www.w3.org/2000/svg" xmlns:ev="http://www.w3.org/2001/xml-events" xmlns:xlink="http://www.w3.org/1999/xlink"><defs /><polygon fill="currentColor" points="117,397 116,398 115,398 114,399 113,399 111,401 111,402 110,403 110,404 109,405 109,407 108,408 108,411 109,412 109,415 110,416 110,417 116,423 116,424 153,461 153,462 154,462 156,464 156,465 173,482 173,483 159,497 159,498 105,552 105,553 103,555 103,556 102,557 102,566 103,567 103,568 105,570 105,571 106,571 108,573 109,573 110,574 112,574 113,575 116,575 117,574 120,574 121,573 122,573 125,570 126,570 127,569 127,568 161,534 161,533 162,532 163,532 164,531 164,530 165,529 166,529 166,528 181,513 182,513 182,512 192,502 193,502 215,524 215,525 216,525 223,532 223,533 224,533 226,535 226,536 255,565 255,526 245,516 245,515 244,515 241,512 241,511 240,511 239,510 239,509 212,482 213,481 214,481 214,480 242,452 242,451 243,450 244,450 246,448 246,447 254,439 255,439 255,399 255,400 205,450 205,451 193,463 153,423 153,422 130,399 129,399 128,398 127,398 126,397" /><polygon fill="currentColor" points="0,378 0,598 2,596 3,596 5,594 6,594 15,585 15,584 17,582 17,581 19,579 19,578 20,577 20,576 21,575 21,574 22,573 22,571 23,570 23,568 24,567 24,564 25,563 25,558 26,557 26,419 25,418 25,413 24,412 24,409 23,408 23,406 22,405 22,403 21,402 21,401 20,400 20,399 19,398 19,397 17,395 17,394 15,392 15,391 5,381 4,381 2,379 1,379" /></svg>