<?xml version="1.0" encoding="utf-8" ?>
<svg baseProfile="full" height="1024" version="1.1" width="256" xmlns="http://www.w3.org/2000/svg" xmlns:ev="http://www.w3.org/2001/xml-events" xmlns:xlink="http://www.w3.org/1999/xlink"><defs /><polygon fill="currentColor" points="92,370 91,371 86,371 85,372 82,372 81,373 79,373 78,374 76,374 75,375 74,375 73,376 72,376 71,377 70,377 69,378 68,378 67,379 66,379 64,381 63,381 60,384 59,384 53,390 53,391 50,394 50,395 49,396 49,397 47,399 47,400 46,401 46,402 45,403 45,405 44,406 44,408 43,409 43,412 42,413 42,442 41,443 42,444 42,563 43,564 43,567 44,568 44,569 45,570 45,572 46,573 46,574 47,575 47,576 48,577 48,578 49,579 49,580 51,582 51,583 55,587 55,588 56,588 57,589 57,590 58,590 63,595 64,595 66,597 67,597 68,598 69,598 71,600 73,600 74,601 75,601 76,602 78,602 79,603 81,603 82,604 85,604 86,605 93,605 94,606 232,606 233,605 238,605 239,604 242,604 243,603 246,603 247,602 248,602 249,601 250,601 251,600 252,600 253,599 254,599 255,598 255,377 254,377 253,376 252,376 251,375 250,375 249,374 247,374 246,373 244,373 243,372 240,372 239,371 234,371 233,370" /></svg>