<?xml version="1.0" encoding="utf-8" ?>
<svg baseProfile="full" height="1024" version="1.1" width="256" xmlns="http://www.w3.org/2000/svg" xmlns:ev="http://www.w3.org/2001/xml-events" xmlns:xlink="http://www.w3.org/1999/xlink"><defs /><polygon fill="currentColor" points="70,477 69,478 67,478 65,480 64,480 63,481 63,482 61,484 61,485 60,486 60,494 61,495 61,497 64,500 64,501 65,501 67,503 69,503 70,504 213,504 214,503 215,503 216,502 217,502 221,498 221,497 222,496 222,494 223,493 223,489 222,488 222,486 221,485 221,484 220,483 220,482 218,480 217,480 215,478 214,478 213,477" /></svg>